# xmcd
#
# Track frame offsets:
#	150
#	12546
#	24876
#	36904
#	48498
#	59211
#	70529
#	81884
#	94744
#	107812
#	121561
#	133330
#	145334
#	157133
#	170016
#	184648
#	197018
#	210588
#	224160
#	237109
#	249574
#	261183
#	272426
#	284945
#	296347
#
# Disc length: 4118 seconds
# Revision: 1
# Processed by: cddbd v1.5.2PL0 Copyright (c) Steve Scherf et al.
# Submitted via: dBpowerAMP V12.0
#
DISCID=85101419
DTITLE=Billy Briggs - Wizards of Country Guitar: Selected Sides 1935-1955, CD03 - CD04
DYEAR=2011
DGENRE=Country
TTITLE0=Hi Flyer Stomp
TTITLE1=Joe Turner Blues
TTITLE2=Under the Double Eagle
TTITLE3=Old Tobacco Mill
TTITLE4=Static Stomp
TTITLE5=You're the One I Care For
TTITLE6=There's a Little Green Mill (By a Little Green Hill)
TTITLE7=The Five Piece Band
TTITLE8=There's Evil in You Chillun
TTITLE9=Visions of the Past
TTITLE10=Mama Inez
TTITLE11=Am I Blue
TTITLE12=Spanish Cavalier
TTITLE13=Oh Monah!
TTITLE14=I'll Always Be in Love with You
TTITLE15=My Gal Don't Love Me Anymore
TTITLE16=Following You Around
TTITLE17=Thinking of You
TTITLE18=I Live in Memory of You
TTITLE19=My Prairie Queen
TTITLE20=Make a Wreath for Mary
TTITLE21=Panhandle Shuffle
TTITLE22=Sally's Got a Wooden Leg
TTITLE23=Pretty Baby Boogie
TTITLE24=Down in New Orleans
EXTD=
EXTT0=
EXTT1=
EXTT2=
EXTT3=
EXTT4=
EXTT5=
EXTT6=
EXTT7=
EXTT8=
EXTT9=
EXTT10=
EXTT11=
EXTT12=
EXTT13=
EXTT14=
EXTT15=
EXTT16=
EXTT17=
EXTT18=
EXTT19=
EXTT20=
EXTT21=
EXTT22=
EXTT23=
EXTT24=
PLAYORDER=
